<svg width="1024" height="1024" viewBox="0 0 1024 1024" fill="none" xmlns="http://www.w3.org/2000/svg">
<rect width="1024" height="1024" fill="white"/>
<rect width="1024" height="1024" fill="url(#paint0_linear_2057_457)"/>
<path d="M124.32 526.699C124.32 518.783 127.165 511.855 132.855 505.918C138.546 499.98 145.225 497.012 152.895 497.012H450.512L506.176 499.609L484.281 478.457L423.051 421.309C417.113 416.113 414.145 409.434 414.145 401.27C414.145 393.6 416.495 387.168 421.195 381.973C426.143 376.777 432.452 374.18 440.121 374.18C447.296 374.18 453.852 377.025 459.789 382.715L577.426 505.176C581.384 508.887 583.982 512.474 585.219 515.938C586.703 519.401 587.445 522.988 587.445 526.699C587.445 530.41 586.703 533.997 585.219 537.461C583.982 540.924 581.384 544.512 577.426 548.223L459.789 670.684C453.852 676.374 447.296 679.219 440.121 679.219C432.452 679.219 426.143 676.745 421.195 671.797C416.495 666.849 414.145 660.417 414.145 652.5C414.145 644.089 417.113 637.285 423.051 632.09L484.281 574.941L506.176 553.789L450.512 556.016H152.895C145.225 556.016 138.546 553.171 132.855 547.48C127.165 541.543 124.32 534.616 124.32 526.699ZM332.133 625.781V813.555C332.133 828.398 336.339 839.779 344.75 847.695C353.161 855.859 365.284 859.941 381.117 859.941H640.883C656.469 859.941 668.467 855.859 676.879 847.695C685.29 839.779 689.496 828.398 689.496 813.555V240.215C689.496 225.371 685.29 213.991 676.879 206.074C668.467 197.91 656.469 193.828 640.883 193.828H381.117C365.284 193.828 353.161 197.91 344.75 206.074C336.339 213.991 332.133 225.371 332.133 240.215V427.617H272.387V230.566C272.387 201.621 281.664 178.366 300.219 160.801C318.773 142.988 343.142 134.082 373.324 134.082H648.305C678.487 134.082 702.855 142.988 721.41 160.801C739.965 178.366 749.242 201.621 749.242 230.566V823.203C749.242 852.148 739.965 875.404 721.41 892.969C702.855 910.781 678.487 919.688 648.305 919.688H373.324C343.142 919.688 318.773 910.781 300.219 892.969C281.664 875.404 272.387 852.148 272.387 823.203V625.781H332.133Z" fill="white"/>
<defs>
<linearGradient id="paint0_linear_2057_457" x1="19.1146" y1="4.28389e-06" x2="266.615" y2="1182.52" gradientUnits="userSpaceOnUse">
<stop/>
</linearGradient>
</defs>
</svg>
